# xmcd
#
# Track frame offsets:
#	150
#	17281
#	28783
#	43883
#	69531
#	84339
#	99426
#	120462
#	137275
#	163368
#	174831
#	192999
#	204347
#	220198
#	240743
#	251833
#
# Disc length: 3697 seconds
#
# Revision: 1
# Processed by: cddbd v1.5.1PL0 Copyright (c) Steve Scherf et al.
# Submitted via: audiograbber 1.81.03
#
DISCID=d30e6f10
DTITLE=Glenn Miller Orchestra - Swingin' Christmas
DYEAR=1900
DGENRE=Blues
TTITLE0=White christmas
TTITLE1=Silver bells
TTITLE2=Winter wonderland
TTITLE3=Yuletide medley #1 (Oh holy night, Joy to the world, Oh little town of 
TTITLE3=Bethlehem, Deck the halls)
TTITLE4=We wish you a merry christmas
TTITLE5=The twelve days of christmas
TTITLE6=Jingle bells
TTITLE7=Sleigh ride
TTITLE8=Yuletide medely #2 (Oh christmas tree, It came upon a midnight clear, W
TTITLE8=hat child is this?)
TTITLE9=Auld lang syne
TTITLE10=Frosty the snowman
TTITLE11=Good king Wenceslas
TTITLE12=Santa Claus is coming to town
TTITLE13=The christmas song
TTITLE14=Silent night
TTITLE15=Yuletide medley #3 (Away in a manger, Ave Maria, The first noel)
EXTD=
EXTT0=
EXTT1=
EXTT2=
EXTT3=
EXTT4=
EXTT5=
EXTT6=
EXTT7=
EXTT8=
EXTT9=
EXTT10=
EXTT11=
EXTT12=
EXTT13=
EXTT14=
EXTT15=
PLAYORDER=
